<mxfile host="app.diagrams.net" modified="2024-07-12T10:34:49.786Z" agent="Mozilla/5.0 (Windows NT 10.0; Win64; x64) AppleWebKit/537.36 (KHTML, like Gecko) Chrome/126.0.0.0 Safari/537.36" etag="_bHBKf7DP4K6kJs7d16Z" version="24.6.5" type="device">
  <diagram name="Page-1" id="cDnWan96PUlZqVZKQPfy">
    <mxGraphModel dx="1467" dy="823" grid="0" gridSize="10" guides="1" tooltips="1" connect="1" arrows="1" fold="1" page="1" pageScale="1" pageWidth="850" pageHeight="1100" background="#000000" math="0" shadow="0">
      <root>
        <mxCell id="0" />
        <mxCell id="1" parent="0" />
        <mxCell id="4oidCwz43FBI1kerFD6Z-3" value="&lt;font color=&quot;#ffffff&quot;&gt;View Website&lt;/font&gt;" style="rounded=1;whiteSpace=wrap;html=1;arcSize=40;fontColor=#000000;fillColor=#000000;strokeColor=#FFFFFF;gradientColor=none;" vertex="1" parent="1">
          <mxGeometry x="350" y="60" width="100" height="40" as="geometry" />
        </mxCell>
        <mxCell id="4oidCwz43FBI1kerFD6Z-4" value="" style="edgeStyle=orthogonalEdgeStyle;html=1;verticalAlign=bottom;endArrow=open;endSize=8;strokeColor=#ff0000;rounded=0;" edge="1" source="4oidCwz43FBI1kerFD6Z-3" parent="1">
          <mxGeometry relative="1" as="geometry">
            <mxPoint x="400" y="120" as="targetPoint" />
          </mxGeometry>
        </mxCell>
        <mxCell id="4oidCwz43FBI1kerFD6Z-5" value="" style="ellipse;html=1;shape=startState;fillColor=#FFFFFF;strokeColor=#ff0000;" vertex="1" parent="1">
          <mxGeometry x="385" y="10" width="30" height="30" as="geometry" />
        </mxCell>
        <mxCell id="4oidCwz43FBI1kerFD6Z-6" value="" style="edgeStyle=orthogonalEdgeStyle;html=1;verticalAlign=bottom;endArrow=open;endSize=8;strokeColor=#ff0000;rounded=0;" edge="1" source="4oidCwz43FBI1kerFD6Z-5" parent="1">
          <mxGeometry relative="1" as="geometry">
            <mxPoint x="400" y="60" as="targetPoint" />
          </mxGeometry>
        </mxCell>
        <mxCell id="4oidCwz43FBI1kerFD6Z-7" value="" style="shape=line;html=1;strokeWidth=6;strokeColor=#ff0000;" vertex="1" parent="1">
          <mxGeometry x="180" y="120" width="430" height="10" as="geometry" />
        </mxCell>
        <mxCell id="4oidCwz43FBI1kerFD6Z-11" value="" style="edgeStyle=orthogonalEdgeStyle;html=1;verticalAlign=bottom;endArrow=open;endSize=8;strokeColor=#ff0000;rounded=0;fontStyle=1" edge="1" parent="1">
          <mxGeometry relative="1" as="geometry">
            <mxPoint x="560" y="160" as="targetPoint" />
            <mxPoint x="560" y="130" as="sourcePoint" />
          </mxGeometry>
        </mxCell>
        <mxCell id="4oidCwz43FBI1kerFD6Z-12" value="" style="edgeStyle=orthogonalEdgeStyle;html=1;verticalAlign=bottom;endArrow=open;endSize=8;strokeColor=#ff0000;rounded=0;fontStyle=1" edge="1" parent="1">
          <mxGeometry relative="1" as="geometry">
            <mxPoint x="240" y="160" as="targetPoint" />
            <mxPoint x="240" y="130" as="sourcePoint" />
          </mxGeometry>
        </mxCell>
        <mxCell id="4oidCwz43FBI1kerFD6Z-14" value="&lt;font color=&quot;#ffffff&quot;&gt;Enquiry&lt;/font&gt;" style="rounded=1;whiteSpace=wrap;html=1;arcSize=40;fontColor=#000000;fillColor=#000000;strokeColor=#FFFFFF;" vertex="1" parent="1">
          <mxGeometry x="190" y="160" width="100" height="40" as="geometry" />
        </mxCell>
        <mxCell id="4oidCwz43FBI1kerFD6Z-15" value="" style="edgeStyle=orthogonalEdgeStyle;html=1;verticalAlign=bottom;endArrow=open;endSize=8;strokeColor=#ff0000;rounded=0;" edge="1" source="4oidCwz43FBI1kerFD6Z-14" parent="1">
          <mxGeometry relative="1" as="geometry">
            <mxPoint x="240" y="220" as="targetPoint" />
          </mxGeometry>
        </mxCell>
        <mxCell id="4oidCwz43FBI1kerFD6Z-17" value="&lt;font color=&quot;#ffffff&quot;&gt;Book Car&lt;/font&gt;" style="rounded=1;whiteSpace=wrap;html=1;arcSize=40;fontColor=#000000;fillColor=#000000;strokeColor=#FFFFFF;" vertex="1" parent="1">
          <mxGeometry x="510" y="160" width="100" height="40" as="geometry" />
        </mxCell>
        <mxCell id="4oidCwz43FBI1kerFD6Z-18" value="" style="edgeStyle=orthogonalEdgeStyle;html=1;verticalAlign=bottom;endArrow=open;endSize=8;strokeColor=#ff0000;rounded=0;" edge="1" source="4oidCwz43FBI1kerFD6Z-17" parent="1">
          <mxGeometry relative="1" as="geometry">
            <mxPoint x="560" y="220" as="targetPoint" />
          </mxGeometry>
        </mxCell>
        <mxCell id="4oidCwz43FBI1kerFD6Z-19" value="&lt;font color=&quot;#ffffff&quot;&gt;Select car specification&lt;/font&gt;" style="rounded=1;whiteSpace=wrap;html=1;arcSize=40;fontColor=#000000;fillColor=#000000;strokeColor=#FFFFFF;" vertex="1" parent="1">
          <mxGeometry x="510" y="220" width="100" height="40" as="geometry" />
        </mxCell>
        <mxCell id="4oidCwz43FBI1kerFD6Z-20" value="" style="edgeStyle=orthogonalEdgeStyle;html=1;verticalAlign=bottom;endArrow=open;endSize=8;strokeColor=#ff0000;rounded=0;" edge="1" source="4oidCwz43FBI1kerFD6Z-19" parent="1">
          <mxGeometry relative="1" as="geometry">
            <mxPoint x="560" y="290" as="targetPoint" />
          </mxGeometry>
        </mxCell>
        <mxCell id="4oidCwz43FBI1kerFD6Z-21" value="&lt;font color=&quot;#ffffff&quot;&gt;Spec==&lt;/font&gt;&lt;div&gt;&lt;font color=&quot;#ffffff&quot;&gt;available&lt;/font&gt;&lt;/div&gt;" style="rhombus;whiteSpace=wrap;html=1;fontColor=#000000;fillColor=#000000;strokeColor=#FFFFFF;" vertex="1" parent="1">
          <mxGeometry x="490" y="290" width="140" height="40" as="geometry" />
        </mxCell>
        <mxCell id="4oidCwz43FBI1kerFD6Z-22" value="&lt;font style=&quot;background-color: rgb(0, 0, 0);&quot; color=&quot;#ffffff&quot;&gt;no&lt;/font&gt;" style="edgeStyle=orthogonalEdgeStyle;html=1;align=left;verticalAlign=bottom;endArrow=open;endSize=8;strokeColor=#ff0000;rounded=0;exitX=1;exitY=0.5;exitDx=0;exitDy=0;" edge="1" parent="1">
          <mxGeometry x="-1" relative="1" as="geometry">
            <mxPoint x="669" y="309.52" as="targetPoint" />
            <mxPoint x="629" y="309.52" as="sourcePoint" />
            <Array as="points">
              <mxPoint x="670" y="309.52" />
            </Array>
          </mxGeometry>
        </mxCell>
        <mxCell id="4oidCwz43FBI1kerFD6Z-23" value="&lt;font style=&quot;background-color: rgb(0, 0, 0);&quot; color=&quot;#ffffff&quot;&gt;yes&lt;/font&gt;" style="edgeStyle=orthogonalEdgeStyle;html=1;align=left;verticalAlign=top;endArrow=open;endSize=8;strokeColor=#ff0000;rounded=0;" edge="1" parent="1">
          <mxGeometry x="-1" relative="1" as="geometry">
            <mxPoint x="560" y="360" as="targetPoint" />
            <mxPoint x="560" y="330" as="sourcePoint" />
          </mxGeometry>
        </mxCell>
        <mxCell id="4oidCwz43FBI1kerFD6Z-24" value="&lt;font color=&quot;#ffffff&quot;&gt;Record booking detail&lt;/font&gt;" style="rounded=1;whiteSpace=wrap;html=1;arcSize=40;fontColor=#000000;fillColor=#000000;strokeColor=#FFFFFF;" vertex="1" parent="1">
          <mxGeometry x="510" y="360" width="100" height="40" as="geometry" />
        </mxCell>
        <mxCell id="4oidCwz43FBI1kerFD6Z-25" value="" style="edgeStyle=orthogonalEdgeStyle;html=1;verticalAlign=bottom;endArrow=open;endSize=8;strokeColor=#ff0000;rounded=0;" edge="1" source="4oidCwz43FBI1kerFD6Z-24" parent="1">
          <mxGeometry relative="1" as="geometry">
            <mxPoint x="560" y="430" as="targetPoint" />
          </mxGeometry>
        </mxCell>
        <mxCell id="4oidCwz43FBI1kerFD6Z-27" value="&lt;font color=&quot;#ffffff&quot;&gt;Send booking amount&lt;/font&gt;" style="rounded=1;whiteSpace=wrap;html=1;arcSize=40;fontColor=#000000;fillColor=#000000;strokeColor=#FFFFFF;" vertex="1" parent="1">
          <mxGeometry x="510" y="430" width="100" height="40" as="geometry" />
        </mxCell>
        <mxCell id="4oidCwz43FBI1kerFD6Z-28" value="" style="edgeStyle=orthogonalEdgeStyle;html=1;verticalAlign=bottom;endArrow=open;endSize=8;strokeColor=#ff0000;rounded=0;" edge="1" source="4oidCwz43FBI1kerFD6Z-27" parent="1">
          <mxGeometry relative="1" as="geometry">
            <mxPoint x="560" y="490" as="targetPoint" />
          </mxGeometry>
        </mxCell>
        <mxCell id="4oidCwz43FBI1kerFD6Z-30" value="&lt;font color=&quot;#ffffff&quot;&gt;amt==&lt;/font&gt;&lt;div&gt;&lt;font color=&quot;#ffffff&quot;&gt;valid&lt;/font&gt;&lt;/div&gt;" style="rhombus;whiteSpace=wrap;html=1;fontColor=#000000;fillColor=#000000;strokeColor=#FFFFFF;" vertex="1" parent="1">
          <mxGeometry x="520" y="490" width="80" height="40" as="geometry" />
        </mxCell>
        <mxCell id="4oidCwz43FBI1kerFD6Z-31" value="&lt;font style=&quot;background-color: rgb(0, 0, 0);&quot; color=&quot;#ffffff&quot;&gt;no&lt;/font&gt;" style="edgeStyle=orthogonalEdgeStyle;html=1;align=left;verticalAlign=bottom;endArrow=open;endSize=8;strokeColor=#ff0000;rounded=0;entryX=1;entryY=0.5;entryDx=0;entryDy=0;" edge="1" source="4oidCwz43FBI1kerFD6Z-30" parent="1" target="4oidCwz43FBI1kerFD6Z-27">
          <mxGeometry x="-1" relative="1" as="geometry">
            <mxPoint x="670" y="450" as="targetPoint" />
            <Array as="points">
              <mxPoint x="670" y="510" />
              <mxPoint x="670" y="450" />
            </Array>
            <mxPoint as="offset" />
          </mxGeometry>
        </mxCell>
        <mxCell id="4oidCwz43FBI1kerFD6Z-32" value="&lt;font style=&quot;background-color: rgb(0, 0, 0);&quot; color=&quot;#ffffff&quot;&gt;yes&lt;/font&gt;" style="edgeStyle=orthogonalEdgeStyle;html=1;align=left;verticalAlign=top;endArrow=open;endSize=8;strokeColor=#ff0000;rounded=0;" edge="1" source="4oidCwz43FBI1kerFD6Z-30" parent="1">
          <mxGeometry x="-1" relative="1" as="geometry">
            <mxPoint x="560" y="580" as="targetPoint" />
            <Array as="points">
              <mxPoint x="560" y="580" />
              <mxPoint x="560" y="580" />
            </Array>
          </mxGeometry>
        </mxCell>
        <mxCell id="4oidCwz43FBI1kerFD6Z-34" value="&lt;font color=&quot;#ffffff&quot;&gt;Send email&lt;/font&gt;" style="rounded=1;whiteSpace=wrap;html=1;arcSize=50;fontColor=#000000;fillColor=#000000;strokeColor=#FFFFFF;" vertex="1" parent="1">
          <mxGeometry x="510" y="580" width="100" height="40" as="geometry" />
        </mxCell>
        <mxCell id="4oidCwz43FBI1kerFD6Z-35" value="" style="edgeStyle=orthogonalEdgeStyle;html=1;verticalAlign=bottom;endArrow=open;endSize=8;strokeColor=#ff0000;rounded=0;entryX=0.862;entryY=0.6;entryDx=0;entryDy=0;entryPerimeter=0;" edge="1" source="4oidCwz43FBI1kerFD6Z-34" parent="1" target="4oidCwz43FBI1kerFD6Z-47">
          <mxGeometry relative="1" as="geometry">
            <mxPoint x="560" y="640" as="targetPoint" />
            <Array as="points">
              <mxPoint x="560" y="630" />
              <mxPoint x="561" y="630" />
            </Array>
          </mxGeometry>
        </mxCell>
        <mxCell id="4oidCwz43FBI1kerFD6Z-36" value="&lt;font color=&quot;#ffffff&quot;&gt;Display error message&lt;/font&gt;" style="rounded=1;whiteSpace=wrap;html=1;arcSize=40;fontColor=#000000;fillColor=#000000;strokeColor=#FFFFFF;" vertex="1" parent="1">
          <mxGeometry x="669" y="290" width="100" height="40" as="geometry" />
        </mxCell>
        <mxCell id="4oidCwz43FBI1kerFD6Z-37" value="" style="edgeStyle=orthogonalEdgeStyle;html=1;verticalAlign=bottom;endArrow=open;endSize=8;strokeColor=#ff0000;rounded=0;entryX=1;entryY=0.5;entryDx=0;entryDy=0;" edge="1" source="4oidCwz43FBI1kerFD6Z-36" parent="1" target="4oidCwz43FBI1kerFD6Z-19">
          <mxGeometry relative="1" as="geometry">
            <mxPoint x="690" y="230" as="targetPoint" />
            <Array as="points">
              <mxPoint x="690" y="240" />
            </Array>
          </mxGeometry>
        </mxCell>
        <mxCell id="4oidCwz43FBI1kerFD6Z-38" value="&lt;font color=&quot;#ffffff&quot;&gt;Open Enquiry form&lt;/font&gt;" style="rounded=1;whiteSpace=wrap;html=1;arcSize=40;fontColor=#000000;fillColor=#000000;strokeColor=#FFFFFF;" vertex="1" parent="1">
          <mxGeometry x="190" y="220" width="100" height="40" as="geometry" />
        </mxCell>
        <mxCell id="4oidCwz43FBI1kerFD6Z-39" value="" style="edgeStyle=orthogonalEdgeStyle;html=1;verticalAlign=bottom;endArrow=open;endSize=8;strokeColor=#ff0000;rounded=0;" edge="1" source="4oidCwz43FBI1kerFD6Z-38" parent="1">
          <mxGeometry relative="1" as="geometry">
            <mxPoint x="240" y="290" as="targetPoint" />
          </mxGeometry>
        </mxCell>
        <mxCell id="4oidCwz43FBI1kerFD6Z-42" value="&lt;font color=&quot;#ffffff&quot;&gt;Fill Details&lt;/font&gt;" style="rounded=1;whiteSpace=wrap;html=1;arcSize=40;fontColor=#000000;fillColor=#000000;strokeColor=#FFFFFF;" vertex="1" parent="1">
          <mxGeometry x="190" y="290" width="100" height="40" as="geometry" />
        </mxCell>
        <mxCell id="4oidCwz43FBI1kerFD6Z-43" value="" style="edgeStyle=orthogonalEdgeStyle;html=1;verticalAlign=bottom;endArrow=open;endSize=8;strokeColor=#ff0000;rounded=0;" edge="1" source="4oidCwz43FBI1kerFD6Z-42" parent="1">
          <mxGeometry relative="1" as="geometry">
            <mxPoint x="240" y="360" as="targetPoint" />
            <Array as="points">
              <mxPoint x="240" y="360" />
              <mxPoint x="241" y="360" />
            </Array>
          </mxGeometry>
        </mxCell>
        <mxCell id="4oidCwz43FBI1kerFD6Z-44" value="&lt;font color=&quot;#ffffff&quot;&gt;Activity&lt;/font&gt;" style="rounded=1;whiteSpace=wrap;html=1;arcSize=40;fontColor=#000000;fillColor=#000000;strokeColor=#FFFFFF;" vertex="1" parent="1">
          <mxGeometry x="190" y="360" width="100" height="40" as="geometry" />
        </mxCell>
        <mxCell id="4oidCwz43FBI1kerFD6Z-45" value="" style="edgeStyle=orthogonalEdgeStyle;html=1;verticalAlign=bottom;endArrow=open;endSize=8;strokeColor=#ff0000;rounded=0;entryX=0.09;entryY=0.1;entryDx=0;entryDy=0;entryPerimeter=0;" edge="1" source="4oidCwz43FBI1kerFD6Z-44" parent="1" target="4oidCwz43FBI1kerFD6Z-47">
          <mxGeometry relative="1" as="geometry">
            <mxPoint x="240" y="660" as="targetPoint" />
            <Array as="points">
              <mxPoint x="238" y="630" />
              <mxPoint x="238" y="630" />
            </Array>
          </mxGeometry>
        </mxCell>
        <mxCell id="4oidCwz43FBI1kerFD6Z-46" value="" style="ellipse;html=1;shape=endState;fillColor=#FFFFFF;strokeColor=#ff0000;" vertex="1" parent="1">
          <mxGeometry x="380" y="720" width="30" height="30" as="geometry" />
        </mxCell>
        <mxCell id="4oidCwz43FBI1kerFD6Z-47" value="" style="shape=line;html=1;strokeWidth=6;strokeColor=#ff0000;" vertex="1" parent="1">
          <mxGeometry x="200" y="670" width="420" height="10" as="geometry" />
        </mxCell>
        <mxCell id="4oidCwz43FBI1kerFD6Z-48" value="" style="edgeStyle=orthogonalEdgeStyle;html=1;verticalAlign=bottom;endArrow=open;endSize=8;strokeColor=#ff0000;rounded=0;" edge="1" parent="1">
          <mxGeometry relative="1" as="geometry">
            <mxPoint x="394.5" y="720" as="targetPoint" />
            <mxPoint x="395" y="680" as="sourcePoint" />
          </mxGeometry>
        </mxCell>
      </root>
    </mxGraphModel>
  </diagram>
</mxfile>
